<svg xmlns="http://www.w3.org/2000/svg" xmlns:xlink="http://www.w3.org/1999/xlink" width="512" zoomAndPan="magnify" viewBox="0 0 384 383.999986" height="512" preserveAspectRatio="xMidYMid meet" version="1.0"><path fill="#ffffff" d="M 310.011719 381.382812 C 280.601562 380.945312 252.195312 380.878906 230.828125 380.878906 C 220.152344 380.878906 209.492188 380.878906 198.839844 380.878906 L 166.628906 380.878906 C 139.402344 380.878906 106.851562 380.804688 71.835938 380.152344 C 53.15625 379.800781 37.597656 368.125 29.101562 348.128906 C 18.707031 323.464844 20.226562 285.78125 47.046875 257.164062 C 66.015625 236.925781 90.324219 212.25 113.839844 188.390625 C 141.164062 160.71875 167.054688 134.382812 183.496094 116.21875 C 174.21875 116.21875 163.988281 116.34375 153.40625 116.445312 C 139.832031 116.570312 125.664062 116.695312 112.21875 116.695312 C 97.585938 116.695312 85.824219 116.53125 76.445312 116.21875 C 45.425781 115.125 29.050781 84.773438 29.363281 56.714844 C 29.679688 30.210938 45.175781 3.28125 79.097656 2.894531 C 96.203125 2.691406 122.484375 2.652344 156.683594 2.652344 L 200.363281 2.652344 C 239.800781 2.652344 284.082031 2.652344 310.425781 2.175781 L 311.34375 2.175781 C 331.554688 2.175781 347.652344 13.421875 355.496094 33.015625 C 366.078125 59.429688 358.375 92.332031 336.769531 112.960938 C 330.925781 118.546875 314.019531 136.042969 292.617188 158.242188 C 260.199219 191.796875 216.488281 237.027344 192.457031 260.121094 C 205.226562 259.96875 225.914062 259.882812 249.695312 259.882812 C 277.507812 259.882812 302.972656 260.007812 316.15625 260.210938 C 339.007812 260.546875 363.453125 279.265625 363.152344 319.527344 C 362.824219 362.050781 335.828125 381.433594 310.878906 381.433594 Z M 310.011719 381.382812 " fill-opacity="1" fill-rule="nonzero"/><path fill="#000000" d="M 353.546875 277.84375 C 344.574219 265.050781 331.667969 258.222656 316.292969 257.933594 C 303.097656 257.730469 277.621094 257.617188 249.792969 257.617188 C 229.230469 257.617188 210.96875 257.679688 198.136719 257.792969 C 222.835938 233.796875 263.632812 191.574219 294.324219 159.800781 C 315.691406 137.675781 332.597656 120.195312 338.402344 114.648438 C 360.664062 93.390625 368.566406 59.519531 357.671875 32.25 C 349.464844 11.761719 332.621094 0 311.441406 0 L 310.488281 0 C 284.15625 0.441406 239.890625 0.476562 200.460938 0.476562 L 156.671875 0.476562 C 122.460938 0.476562 96.179688 0.476562 79.0625 0.71875 C 43.628906 1.132812 27.453125 29.15625 27.128906 56.75 C 26.789062 85.84375 43.933594 117.375 76.359375 118.507812 C 85.824219 118.835938 97.539062 119 112.203125 119 C 125.664062 119 139.78125 118.859375 153.417969 118.734375 C 162.214844 118.660156 170.5625 118.582031 178.402344 118.53125 C 161.953125 136.429688 137.707031 161.035156 112.242188 186.878906 C 88.714844 210.777344 64.394531 235.445312 45.414062 255.695312 C 17.902344 285.050781 16.355469 323.738281 27.039062 349.058594 C 35.699219 369.609375 52.414062 382.089844 71.734375 382.441406 C 106.761719 383.09375 139.328125 383.183594 166.550781 383.183594 C 177.351562 383.183594 188.09375 383.183594 198.777344 383.183594 L 230.765625 383.183594 C 252.195312 383.183594 280.5625 383.246094 309.949219 383.6875 L 310.839844 383.6875 C 312.828125 383.722656 314.8125 383.644531 316.789062 383.441406 C 318.769531 383.242188 320.726562 382.921875 322.667969 382.480469 C 324.605469 382.042969 326.511719 381.488281 328.382812 380.816406 C 330.257812 380.148438 332.082031 379.367188 333.859375 378.476562 C 335.636719 377.585938 337.355469 376.589844 339.011719 375.488281 C 340.671875 374.390625 342.253906 373.195312 343.769531 371.902344 C 345.28125 370.613281 346.710938 369.234375 348.054688 367.769531 C 349.402344 366.304688 350.65625 364.761719 351.8125 363.144531 C 360.410156 351.5625 365.210938 336.089844 365.335938 319.578125 C 365.539062 303.714844 361.316406 288.910156 353.546875 277.84375 Z M 310.914062 379.15625 L 310.085938 379.15625 C 283 378.742188 256.820312 378.65625 230.816406 378.65625 C 209.449219 378.65625 188.15625 378.65625 166.601562 378.65625 C 135.984375 378.65625 104.777344 378.527344 71.859375 377.914062 C 25.984375 377.070312 6.503906 303.703125 48.71875 258.6875 C 90.9375 213.671875 159.1875 147.058594 188.546875 114.042969 C 166.550781 114.042969 138.097656 114.535156 112.253906 114.535156 C 99.320312 114.535156 87.054688 114.40625 76.558594 114.042969 C 19.914062 112.066406 12.585938 5.960938 79.160156 5.195312 C 96.996094 4.980469 125.300781 4.957031 156.722656 4.957031 L 200.398438 4.957031 C 243.007812 4.957031 285.175781 4.894531 310.5 4.476562 L 311.378906 4.476562 C 360.726562 4.476562 374.363281 74.082031 335.261719 111.390625 C 319.574219 126.382812 223.285156 228.160156 186.835938 262.398438 C 199.40625 262.183594 224.34375 262.082031 249.757812 262.082031 C 275.699219 262.082031 302.105469 262.195312 316.195312 262.398438 C 377.339844 263.316406 376.082031 379.15625 310.914062 379.15625 Z M 310.914062 379.15625 " fill-opacity="1" fill-rule="nonzero"/></svg>